<svg xmlns="http://www.w3.org/2000/svg" viewBox="0 0 30 44"><defs><style>.cls-1{fill:none;stroke:#000;stroke-linejoin:round;stroke-width:2px;}</style></defs><title>oil</title><g id="Layer_2" data-name="Layer 2"><g id="Icons"><path class="cls-1" d="M2,14.09a1.49,1.49,0,0,0,0,2.82Z"/><path class="cls-1" d="M28,14.09v2.82a1.49,1.49,0,0,0,0-2.82Z"/><rect class="cls-1" x="1" y="1" width="28" height="3" rx="1.5" ry="1.5"/><rect class="cls-1" x="1" y="40" width="28" height="3" rx="1.5" ry="1.5"/><line class="cls-1" x1="20.72" y1="29" x2="28" y2="29"/><line class="cls-1" x1="2" y1="29" x2="9.28" y2="29"/><line class="cls-1" x1="21.71" y1="16" x2="28" y2="16"/><line class="cls-1" x1="2" y1="16" x2="8.29" y2="16"/><circle class="cls-1" cx="15" cy="22" r="9"/><circle class="cls-1" cx="15" cy="22" r="9"/><path class="cls-1" d="M18,23.25a3,3,0,0,1-6,0c0-2.5,2.5-4,3-6.5C15.5,19.25,18,20.75,18,23.25Z"/><path class="cls-1" d="M2,27.09a1.49,1.49,0,0,0,0,2.82Z"/><path class="cls-1" d="M28,27.09v2.82a1.49,1.49,0,0,0,0-2.82Z"/><rect class="cls-1" x="2" y="4" width="26" height="36"/></g></g></svg>